PathFileType	4	(X/Y/Z)	C:/Users/beibeiliu/ov580/test_trc/User3\out1_training_dense_left.trc
DataRate	CameraRate	NumFrames	NumMarkers	Units	OrigDataRate	OrigDataStartFrame	OrigNumFrames
120	120	13	19	mm	120	251	500
Frame#	Time	ThumbCMC			ThumbMCP			ThumbIP			ThumbTip			IndexMCP			IndexPIP			IndexTip			MiddleMCP			MiddlePIP			MiddleTip			RingMCP			RingPIP			RingTip			PinkyMCP			PinkyPIP			PinkyTip			BackHand1			BackHand2			BackHand3	
		X0	Y0	Z0	X1	Y1	Z1	X2	Y2	Z2	X3	Y3	Z3	X4	Y4	Z4	X5	Y5	Z5	X6	Y6	Z6	X7	Y7	Z7	X8	Y8	Z8	X9	Y9	Z9	X10	Y10	Z10	X11	Y11	Z11	X12	Y12	Z12	X13	Y13	Z13	X14	Y14	Z14	X15	Y15	Z15	X16	Y16	Z16	X17	Y17	Z17	X18	Y18	Z18	
250	2.08333	-165.878	17.9497	45.4733	-155.463	41.3326	16.0688	-134.905	47.0156	-7.66783	-114.659	47.0237	-16.1387	-162.555	-11.8436	-22.88	-154.921	-2.69928	-50.0265	-147.764	25.0598	-69.2464	-133.613	-20.6982	-26.5086	-130.01	-4.61415	-53.2553	-120.452	28.0719	-61.327	-117.355	-13.7052	-13.7704	-104.454	3.88282	-37.437	-103.327	33.8167	-41.9023	-99.5751	-10.349	2.62386	-89.8634	2.07722	-19.318	-85.6803	21.6587	-33.698	-128.5	-28.0263	38.9935	-130.877	-23.593	68.7813	-158.894	-19.0192	49.6819	
251	2.09167	-169.987	19.8482	48.1146	-156.455	41.1896	19.4235	-135.229	46.7484	-5.41173	-112.177	42.7178	-15.6631	-160.358	-12.7455	-23.4273	-157.261	-1.74855	-50.7028	-152.584	20.2082	-66.8046	-136.968	-22.3448	-23.8636	-129.323	-12.219	-51.8698	-123.022	20.2788	-67.2093	-116.549	-15.9783	-15.9778	-109.596	-0.165687	-39.8152	-104.186	31.6869	-44.908	-100.865	-6.68591	3.32922	-92.7372	6.25832	-19.0506	-91.7485	31.4841	-33.3744	-128.51	-27.8697	37.2211	-130.22	-25.0102	69.9043	-156.934	-22.2811	49.2526	
252	2.1	-167.461	17.1088	50.3376	-155.604	38.2676	15.5815	-136.585	45.202	-4.97386	-111.775	43.1989	-15.8237	-163.146	-14.849	-18.4974	-157.473	-4.50766	-50.6905	-153.599	16.7368	-69.3687	-135.241	-26.1342	-22.5443	-132.005	-17.6728	-51.1368	-124.584	15.8045	-72.3129	-117.703	-17.0805	-13.2952	-110.811	-4.2603	-37.4182	-103.996	26.4006	-45.4015	-96.9196	-5.16329	0.647356	-97.2564	12.9179	-19.4099	-97.2479	36.0912	-28.6112	-127.732	-26.3391	40.5237	-129.957	-25.7167	70.4198	-159.133	-23.0498	50.4497	
253	2.10833	-171.149	19.984	51.2659	-154.593	37.7091	19.8816	-136.044	45.5679	-5.87818	-111.169	43.5396	-17.0161	-161.042	-16.5411	-20.4785	-164.469	-8.49001	-47.0681	-161.956	11.048	-68.9747	-137.609	-26.8216	-22.0776	-134.479	-21.7928	-49.9381	-125.888	7.86993	-72.044	-116.321	-17.7283	-15.0113	-108.258	-3.97155	-37.7748	-105.914	29.1013	-45.6557	-98.5978	-4.77739	1.07573	-96.337	14.2507	-18.3207	-93.4136	35.7043	-27.3658	-126.504	-28.3092	37.9755	-128.235	-26.5242	68.2037	-161.752	-20.503	48.9675	
254	2.11667	-167.776	17.3756	47.4956	-155.413	40.2677	17.882	-136.246	46.3835	-3.65039	-109.451	41.5212	-15.7494	-165.913	-14.5346	-18.1371	-167.333	-7.65178	-47.8995	-162.701	12.0647	-71.3031	-137.049	-26.5881	-16.7866	-134.014	-22.3749	-49.9477	-125.837	8.59782	-75.6982	-117.853	-18.5105	-11.5646	-111.178	-2.90023	-40.1408	-105.543	27.9783	-45.63	-97.2364	-4.86877	2.78825	-96.455	11.4988	-16.6181	-95.9683	37.4937	-26.3131	-128.906	-27.6607	38.3279	-130.388	-24.022	68.7183	-161.819	-20.2376	51.6016	
255	2.125	-166.203	19.5105	47.9356	-155.019	41.1739	20.507	-135.493	48.8219	-3.64827	-109.271	42.6404	-14.2695	-165.507	-13.0338	-17.7353	-164.909	-6.2582	-49.8445	-161.366	8.49439	-70.5513	-141.74	-24.2659	-20.9947	-132.693	-20.5614	-48.6542	-123.747	6.42459	-74.0347	-120.615	-17.2339	-11.795	-107.72	-2.28512	-39.0012	-105.835	29.2074	-46.8388	-98.9451	-5.99778	0.0419536	-90.633	10.3814	-15.2477	-91.3629	38.6159	-24.6478	-129.553	-25.6332	38.5006	-131.601	-23.8575	69.0739	-159.522	-19.5472	52.4946	
256	2.13333	-169.372	22.4536	50.0053	-155.692	43.9551	19.234	-134.392	46.5318	-2.90265	-109.311	44.9983	-17.0755	-167.483	-10.4698	-16.8181	-169.823	-4.29163	-50.7817	-163.008	9.37437	-73.217	-137.01	-23.5186	-18.8825	-132.988	-19.2879	-50.4904	-124.795	6.37212	-74.4039	-119.361	-15.6046	-15.4391	-107.641	-2.03286	-38.1596	-103.506	29.1986	-43.1385	-98.0417	-8.07807	2.67821	-94.0484	7.26025	-17.8503	-91.0313	33.1212	-24.8273	-128.804	-25.2022	37.9971	-132.37	-25.094	69.1749	-159.233	-19.1528	51.8312	
257	2.14167	-170.553	23.7931	49.5725	-156.089	43.3921	17.5858	-136.49	47.4408	-1.83944	-111.915	44.6827	-14.856	-169.382	-11.3087	-21.8441	-166.134	-5.59668	-50.8754	-162.387	7.07097	-71.6017	-143.274	-23.0552	-22.5551	-131.782	-14.7895	-54.4077	-125.296	12.1343	-74.2575	-119.286	-16.4105	-11.0112	-106.891	-0.91307	-36.4188	-105.03	30.7563	-39.8117	-98.5156	-9.75219	3.4291	-91.3381	6.62244	-17.3361	-86.235	31.8793	-24.9486	-130.771	-25.968	36.4511	-133.373	-26.7571	69.6364	-160.194	-18.1715	45.7832	
258	2.15	-168.339	24.4667	48.9202	-154.004	43.8671	23.8031	-135.928	52.4349	-5.97098	-113.936	46.9269	-17.1703	-168.365	-7.73546	-20.4071	-168.18	-3.41552	-48.8797	-163.711	9.858	-71.528	-140.735	-21.6348	-21.5841	-135.392	-9.96161	-54.5645	-118.361	18.4043	-69.8419	-119.863	-13.8547	-14.5385	-108.642	4.98515	-36.709	-99.9737	38.0795	-31.7021	-101.983	-12.6567	1.1387	-89.1972	3.93761	-17.8934	-86.7908	26.2971	-22.0041	-132.582	-27.8199	39.8456	-139.222	-26.0411	67.7477	-163.521	-15.5994	48.1757	
259	2.15833	-168.034	30.1751	46.8501	-151.487	48.7689	20.9746	-131.675	51.6609	-5.40626	-109.961	50.4381	-18.011	-169.446	-3.46019	-19.4087	-174.404	3.91016	-47.3291	-166.509	16.2377	-71.4933	-145.658	-17.5827	-22.1451	-137.242	-8.50853	-50.8328	-118.755	25.6138	-66.1861	-120.235	-13.5635	-13.8205	-108.002	3.0998	-32.5738	-100.408	37.7743	-27.4851	-106.734	-15.2249	6.50219	-90.1709	-1.75706	-14.2723	-87.5976	25.1982	-22.0256	-137.002	-28.709	41.8211	-143.139	-24.0888	69.2957	-171.826	-11.3159	47.0788	
260	2.16667	-164.799	34.0469	48.4264	-147.355	52.3547	21.805	-127.703	54.8684	-1.99599	-107.254	50.1291	-13.7546	-171.466	3.10939	-21.1471	-170.807	8.29638	-46.1299	-165.98	22.6073	-71.9258	-150.206	-12.3827	-21.3262	-139.783	-3.57425	-50.6079	-116.785	27.6638	-63.2442	-128.319	-11.5846	-10.9783	-111.417	3.22654	-32.6934	-96.4872	32.3744	-25.4881	-107.844	-18.1114	1.54667	-95.581	-8.03947	-14.2677	-85.4731	21.119	-22.5476	-142.081	-25.7634	41.3241	-147.184	-23.159	69.6767	-169.992	-6.57074	49.2252	
261	2.175	-163.149	37.572	52.4638	-141.849	53.6975	23.5121	-121.501	52.6288	-2.71699	-103.018	47.1433	-16.0645	-176.568	12.498	-20.2693	-175.096	19.1829	-49.5436	-162.731	26.7257	-72.5396	-153.982	-9.44643	-23.2949	-138.406	-0.875584	-51.3315	-115.68	23.6616	-59.4671	-129.559	-13.0227	-10.5472	-107.871	1.29845	-31.6337	-94.5168	29.5812	-26.1211	-114.839	-20.8313	5.2247	-98.2064	-12.3006	-13.6179	-85.683	12.7268	-22.0418	-148.706	-22.9541	36.4636	-151.521	-23.7111	66.8653	-178.166	0.730011	48.6037	
262	2.18333	-161.28	39.9518	51.6053	-138.236	49.84	23.3338	-120.418	54.7662	2.12969	-99.2386	46.3241	-19.4445	-174.326	13.3096	-21.6926	-174.62	24.2041	-50.7182	-161.216	31.0354	-74.7208	-155.274	-5.309	-21.7393	-141.437	3.86762	-51.8402	-111.735	26.8274	-57.7434	-131.448	-11.6468	-13.2969	-109.693	2.76418	-31.9895	-94.5077	27.5693	-27.5417	-116.413	-24.5826	2.70835	-98.5249	-15.1924	-16.6644	-86.0853	0.48078	-26.3935	-156.481	-19.7026	39.398	-156.166	-21.386	70.9829	-175.765	2.45652	49.6358	
